<svg width="24" height="24" fill="none" xmlns="http://www.w3.org/2000/svg"><path d="M8.02 2.044c-1.92.188-3.243.992-3.754 2.282C4 4.996 4.02 4.29 4.02 13.2v8.06l.086.16c.197.363.509.557.902.559l.268.001 3.362-1.68 3.363-1.679 3.36 1.679 3.36 1.68.27-.002c.395-.002.706-.195.903-.558l.086-.16.012-7.86c.008-5.622-.001-7.951-.033-8.18-.06-.426-.246-.978-.445-1.313-.455-.77-1.362-1.395-2.414-1.662-.885-.225-.774-.22-4.9-.228-2.101-.005-3.982.008-4.18.027m8.011 6.058c.611.255.659 1.117.079 1.427l-.17.091h-3.92c-2.156 0-3.969-.014-4.029-.031-.159-.044-.393-.264-.476-.449a.776.776 0 0 1 .383-1.025c.154-.069.365-.073 4.073-.074 3.441-.001 3.929.006 4.06.061" fill="#111013" fill-rule="evenodd"/></svg>