<svg width="24" height="24" fill="none" xmlns="http://www.w3.org/2000/svg"><path d="M18.74 1.445a1.929 1.929 0 0 0-.929.373c-.127.095-.586.531-1.021.968l-.79.795 2.211 2.21 2.211 2.211.883-.891c.486-.49.931-.973.989-1.074.205-.355.277-.626.277-1.037 0-.411-.072-.682-.277-1.037-.14-.242-1.889-2.005-2.189-2.206a2.046 2.046 0 0 0-1.365-.312M11.974 7.61c-2.813 2.817-2.764 2.761-2.914 3.338-.074.282-.085 2.126-.016 2.46.157.75.798 1.391 1.548 1.548.334.069 2.178.058 2.46-.016.577-.15.52-.101 3.338-2.914l2.611-2.606-2.211-2.21-2.211-2.211-2.605 2.611m-7.475 5.433a3.035 3.035 0 0 0-2.374 2.096c-.083.273-.098.403-.098.861 0 .458.015.588.098.861a3.076 3.076 0 0 0 2.014 2.018l.321.101 7.423.02 7.423.02.197.121a.998.998 0 0 1 0 1.718l-.197.121-2.324.02-2.324.02-.199.102a.76.76 0 0 0-.319.297c-.112.181-.12.222-.12.578 0 .347.011.401.111.572a.862.862 0 0 0 .3.3l.189.111h2.44c2.427 0 2.442 0 2.762-.092a3.07 3.07 0 0 0 2.053-2.027c.083-.273.098-.403.098-.861 0-.458-.015-.588-.098-.861a3.076 3.076 0 0 0-2.014-2.018l-.321-.101-7.423-.02-7.423-.02-.197-.121a.998.998 0 0 1 0-1.718l.197-.121.846-.02.847-.02.194-.121c.247-.152.38-.396.408-.75.043-.533-.18-.924-.596-1.047-.231-.069-1.521-.081-1.894-.019" fill="#111013" fill-rule="evenodd"/></svg>