<svg xmlns="http://www.w3.org/2000/svg" fill="none" viewBox="0 0 18 18"><path d="M5.535 1.532c-1.948.192-3.515 1.62-3.951 3.598l-.069.315v7.11l.069.315c.403 1.83 1.716 3.143 3.546 3.546l.315.069h7.11l.315-.069c.938-.207 1.69-.616 2.332-1.27.628-.64 1.011-1.358 1.214-2.276l.069-.315v-7.11l-.069-.315c-.203-.918-.586-1.636-1.214-2.276a4.394 4.394 0 0 0-2.779-1.324c-.346-.034-6.544-.032-6.888.002m6.919 1.512a3.02 3.02 0 0 1 2.394 2.022C14.995 5.501 15 5.61 15 9c0 3.392-.005 3.5-.153 3.934a3.012 3.012 0 0 1-2.267 2.004c-.286.058-.405.062-1.942.062H9v-4.5h1.207c.717 0 1.252-.013 1.317-.03a.64.64 0 0 0 .386-.301c.066-.117.075-.17.074-.419-.001-.324-.06-.484-.225-.601-.197-.14-.291-.149-1.564-.149H9v-.132c0-.227.06-.744.11-.948.194-.789.704-1.092 1.962-1.166.584-.034.708-.085.848-.349.093-.177.092-.636-.003-.816-.083-.158-.239-.266-.45-.313-.311-.07-1.273.03-1.818.189-.592.172-1.162.548-1.495.986-.4.526-.654 1.435-.654 2.341v.202l-.52.011c-.519.01-.52.01-.667.101-.23.142-.298.29-.298.644 0 .248.01.302.075.419a.64.64 0 0 0 .386.301c.06.016.315.03.566.03H7.5V15h-.888c-.779 0-.925-.008-1.192-.062a2.989 2.989 0 0 1-2.376-2.484c-.064-.427-.064-6.481 0-6.908.192-1.272 1.212-2.303 2.475-2.5.394-.062 6.529-.063 6.935-.002" fill-rule="evenodd" fill="#000"/></svg>