<svg width="24" height="24" fill="none" xmlns="http://www.w3.org/2000/svg"><path d="M4.413 3.674c-.371.128-.617.377-.751.761-.051.145-.062.417-.062 1.569 0 1.326.004 1.404.086 1.622.114.305.383.574.688.688l.229.086h14.794l.229-.086c.305-.114.574-.383.688-.688.082-.218.086-.296.086-1.626 0-1.301-.006-1.412-.08-1.612a1.184 1.184 0 0 0-.591-.656L19.5 3.62l-7.44-.009c-7.061-.008-7.451-.005-7.647.063m0 7.2a1.163 1.163 0 0 0-.751.761c-.054.153-.062.656-.062 3.969 0 3.78 0 3.794.086 4.022.114.305.383.574.688.688.228.086.242.086 4.026.086s3.798 0 4.026-.086c.305-.114.574-.383.688-.688.086-.228.086-.242.086-4.026 0-3.704-.002-3.802-.08-4.012a1.184 1.184 0 0 0-.591-.656l-.229-.112-3.84-.009c-3.605-.009-3.853-.005-4.047.063m12-.001c-.371.13-.617.379-.751.762-.054.153-.062.656-.062 3.969 0 3.78 0 3.794.086 4.022.114.305.383.574.688.688.218.082.296.086 1.626.086 1.33 0 1.408-.004 1.626-.086.305-.114.574-.383.688-.688.086-.228.086-.242.086-4.026 0-3.704-.002-3.802-.08-4.012a1.184 1.184 0 0 0-.591-.656l-.229-.112-1.44-.01c-1.302-.008-1.46-.002-1.647.063" fill="#111013" fill-rule="evenodd"/></svg>