<svg width="24" height="24" fill="none" xmlns="http://www.w3.org/2000/svg"><path d="M9.52 3.66v1.66h2.68v1.36H7.742c-3.133 0-4.521.013-4.67.045a1.948 1.948 0 0 0-1.442 1.33l-.09.285v8.04l.093.26c.125.348.29.598.553.838.412.377.857.522 1.601.522h.412l.011 1.692.01 1.692 2.08-1.689 2.08-1.69 2.25-.002L12.88 18v-4.68h3.812c4.158 0 4.046.006 4.479-.23.412-.224.72-.585.913-1.07l.096-.24.012-3.94c.008-2.813-.002-4.018-.035-4.213a1.975 1.975 0 0 0-.987-1.379c-.482-.256-.244-.247-6.22-.247L9.52 2v1.66m7.28 1v.66H18.995l.032.19c.059.352.034 1.284-.044 1.67-.185.901-.62 1.786-1.171 2.382l-.217.234.153.04c.312.083.52.12.822.147l.31.028V11.332l-.39-.024c-.488-.03-1.192-.206-1.779-.444l-.446-.182-.343.137a8.76 8.76 0 0 1-.683.235c-.382.11-1.249.266-1.481.266h-.151l-.022-.29c-.012-.16-.031-.454-.043-.655l-.02-.364.349-.028a6.02 6.02 0 0 0 .978-.166c.057-.018.03-.068-.153-.284a4.337 4.337 0 0 1-.616-.933c-.133-.264-.32-.77-.32-.867 0-.042.144-.053.69-.053h.69l.077.187c.118.288.43.726.72 1.012l.263.258.223-.218a3.462 3.462 0 0 0 1.01-1.989l.034-.25H13.48V5.32h2V4h1.32v.66m-7.572 7.62a264.05 264.05 0 0 1 1.091 2.97c.001.017-.355.03-.791.03h-.792l-.169-.54-.168-.54H6.333l-.197.53-.198.53-.789.011c-.56.008-.789-.002-.789-.034 0-.025.49-1.366 1.089-2.982l1.09-2.937.799.011.799.011 1.091 2.94m-2.221-.259c-.18.551-.327 1.015-.327 1.03 0 .016.298.029.663.029.613 0 .661-.005.64-.07l-.336-1.03-.314-.96-.326 1.001" fill="#111013" fill-rule="evenodd"/></svg>