<svg width="24" height="24" fill="none" xmlns="http://www.w3.org/2000/svg"><path d="M5.57 3.042c-1.53.202-2.851 1.295-3.357 2.778-.19.558-.213.831-.213 2.573 0 1.571.003 1.627.085 1.797.127.263.314.367.777.431.637.089 1.035.348 1.251.813.087.188.105.283.106.566 0 .299-.015.372-.125.606-.243.513-.667.8-1.285.869-.371.041-.532.125-.693.358l-.096.141-.012 1.583c-.013 1.701.007 1.992.18 2.542.427 1.361 1.501 2.381 2.924 2.774l.388.107h13l.388-.107c1.423-.393 2.497-1.413 2.924-2.774.173-.55.193-.841.18-2.542l-.012-1.583-.096-.141c-.161-.233-.322-.317-.693-.358-.618-.069-1.042-.356-1.285-.869-.11-.233-.125-.308-.125-.606 0-.297.015-.373.123-.6.243-.511.671-.801 1.288-.873.404-.047.599-.16.723-.417.082-.17.085-.227.085-1.757 0-1.212-.014-1.661-.059-1.918-.28-1.601-1.445-2.865-3.044-3.305l-.397-.11-6.34-.005c-3.487-.003-6.453.009-6.59.027m6.697 5.161c.216.081.344.262.737 1.047.218.434.412.79.431.79.02 0 .409.054.866.12.938.136 1.097.194 1.247.46a.858.858 0 0 1 .051.647c-.022.062-.336.401-.696.753l-.656.64.136.76c.175.976.177 1.153.015 1.377a.836.836 0 0 1-.29.245c-.307.14-.397.116-1.289-.344L12 14.276l-.819.422c-.891.459-.982.483-1.286.345a.875.875 0 0 1-.278-.223c-.169-.222-.169-.48 0-1.4l.139-.76-.636-.62c-.35-.341-.664-.678-.698-.748-.156-.321-.01-.775.299-.933.106-.054.43-.12.983-.2.454-.065.841-.119.861-.119.019 0 .213-.356.431-.79.217-.434.438-.829.49-.877a.758.758 0 0 1 .781-.17" fill="#111013" fill-rule="evenodd"/></svg>