<svg width="32" height="32" fill="none" xmlns="http://www.w3.org/2000/svg"><path d="M21.324 5.093c-2.053.346-3.854 1.898-4.516 3.894-.273.823-.367 2-.223 2.792.034.186.054.347.044.357-.01.01-.342-.005-.737-.032-3.706-.255-6.91-1.611-9.38-3.969-.47-.449-1.24-1.318-1.548-1.748-.1-.14-.203-.254-.229-.254-.09 0-.47.885-.606 1.414-.171.662-.231 1.734-.131 2.358a5.913 5.913 0 0 0 1.063 2.522c.255.337.774.862 1.206 1.218l.213.176-.453-.028a4.808 4.808 0 0 1-1.699-.434 4.908 4.908 0 0 0-.421-.186c-.059 0 .047.971.149 1.372.525 2.062 1.89 3.488 3.993 4.174l.458.149-.214.066c-.286.088-1.705.132-2.033.062-.142-.03-.27-.043-.285-.029-.05.05.222.744.437 1.113.931 1.595 2.485 2.61 4.378 2.857l.521.069-.149.125c-1.341 1.124-2.845 1.783-4.856 2.125-.785.134-2.19.23-2.893.199l-.4-.018.294.189c.44.285 2.143 1.115 2.72 1.327a17.6 17.6 0 0 0 3.68.921c.833.117 3.106.134 3.946.03 7.657-.949 13.54-7.08 14.397-15.005.031-.283.072-.901.091-1.373l.036-.859.405-.303c.582-.436 1.739-1.619 2.098-2.147.168-.247.297-.457.288-.467-.01-.01-.177.055-.372.143a8.28 8.28 0 0 1-.901.318c-.519.149-1.86.441-1.89.412-.008-.008.151-.14.353-.294a6.36 6.36 0 0 0 1.657-1.946c.213-.395.39-.836.351-.875-.012-.012-.151.051-.308.14-.599.338-2.49 1.042-3.098 1.154-.19.035-.218.02-.535-.276a5.795 5.795 0 0 0-2.905-1.435c-.509-.091-1.449-.09-1.996.002" fill="#47ACDF" fill-rule="evenodd"/></svg>