<svg width="24" height="24" fill="none" xmlns="http://www.w3.org/2000/svg"><path d="M7.02 2.046c-1.553.177-2.739.909-3.407 2.103-.196.351-.427 1.025-.518 1.511-.071.38-.075.703-.075 6.34 0 5.639.004 5.96.075 6.34.132.705.394 1.382.718 1.86.179.264.652.743.927.94.507.362 1.172.63 1.915.771.334.063.791.069 5.345.069 4.696 0 5.003-.004 5.38-.075 1.009-.189 1.765-.56 2.362-1.162.659-.665 1.054-1.541 1.199-2.661.053-.402.06-1.268.05-6.284L20.98 5.98l-.092-.433c-.412-1.939-1.556-3.064-3.513-3.453-.326-.065-.746-.071-5.195-.078-2.719-.004-4.98.009-5.16.03m4.467 4.735c.488.339.457 1.074-.057 1.348-.167.09-.196.091-1.75.103-1.688.013-1.837 0-2.07-.177-.425-.324-.375-1.042.09-1.286.214-.113.377-.122 2.007-.115l1.606.006.174.121m4.765 4.484a.728.728 0 0 1 .428.695.765.765 0 0 1-.58.756c-.224.061-7.976.061-8.2 0a.765.765 0 0 1-.58-.756c0-.212.094-.448.226-.567.223-.202.008-.192 4.446-.193 3.73 0 4.144.006 4.26.065m.041 4.627a.844.844 0 0 1 .253.96c-.073.174-.309.375-.502.427-.108.029-1.454.039-4.231.032L7.74 17.3l-.15-.093a.814.814 0 0 1-.366-.687.952.952 0 0 1 .066-.34c.078-.149.258-.323.39-.375.065-.026 1.566-.038 4.283-.033l4.183.008.147.112" fill="#111013" fill-rule="evenodd"/></svg>