<svg width="24" height="24" fill="none" xmlns="http://www.w3.org/2000/svg"><path d="M8.42 3.041C7.022 3.257 5.8 4.224 5.288 5.52c-.213.54-.259.827-.285 1.755l-.023.855-.26.088c-1.289.439-2.251 1.488-2.604 2.842-.135.517-.135 1.363 0 1.88a4.079 4.079 0 0 0 1.7 2.401c.386.252.729.403 1.224.54.379.104 1.083.129 1.8.064.434-.04.562-.006.815.216.233.205.323.41.323.739 0 .311-.063.471-.272.693-.285.303-.643.382-1.754.385l-.829.002.024.1c.059.255.337.85.531 1.14 1.38 2.05 4.248 2.373 6.072.683l.25-.232.25.232a4.207 4.207 0 0 0 1.83.988c.483.122 1.357.122 1.84 0 1.263-.319 2.296-1.197 2.763-2.35a4.97 4.97 0 0 0 .17-.461l.024-.1-.829-.002c-1.111-.003-1.469-.082-1.754-.385-.209-.222-.272-.382-.272-.693 0-.21.022-.321.087-.444.102-.194.329-.402.528-.486.145-.061.15-.061 1.146.015.604.046 1.358-.114 1.957-.415 1.063-.534 1.797-1.442 2.107-2.603.118-.445.144-1.249.055-1.69-.294-1.452-1.265-2.585-2.622-3.06l-.26-.09-.025-.874c-.02-.695-.042-.938-.108-1.193-.257-.993-.816-1.802-1.622-2.35a4.787 4.787 0 0 0-1.327-.596c-.481-.119-1.329-.128-1.798-.019a4.158 4.158 0 0 0-1.897 1.009l-.242.224-.25-.228a4.334 4.334 0 0 0-1.791-.978c-.39-.098-1.164-.139-1.54-.081m3.92 3.025c.117.04.263.135.365.237.298.298.295.272.295 2.904 0 1.272.014 2.313.031 2.313a.322.322 0 0 0 .11-.053c.152-.103.682-.3.999-.37.182-.041.493-.073.72-.074.354-.003.424.009.6.099.538.276.697 1.001.327 1.487-.182.238-.431.353-.856.396a3.5 3.5 0 0 0-.551.1 2.055 2.055 0 0 0-1.336 1.487c-.026.126-.044.677-.044 1.363 0 1.344-.021 1.468-.295 1.742a.984.984 0 0 1-1.406.004c-.282-.282-.299-.381-.299-1.74 0-.933-.013-1.235-.061-1.423-.223-.866-.912-1.45-1.796-1.522-.418-.034-.649-.12-.843-.314a.983.983 0 0 1 0-1.404c.313-.313.796-.372 1.59-.194.293.065.823.264.969.363a.322.322 0 0 0 .11.053c.017 0 .031-1.05.031-2.333 0-2.652-.007-2.587.31-2.894a.977.977 0 0 1 1.03-.227" fill="#111013" fill-rule="evenodd"/></svg>