<svg width="24" height="24" fill="none" xmlns="http://www.w3.org/2000/svg"><path d="M11.34 2.043a5.066 5.066 0 0 0-1.52.474c-1.63.8-2.666 2.326-2.805 4.133l-.026.34-.28.026a2.397 2.397 0 0 0-.969.266c-.895.427-1.49 1.26-1.781 2.497-.042.177-.269 1.833-.505 3.681-.428 3.347-.429 3.363-.43 4.22 0 .734.013.919.087 1.26.372 1.715 1.394 2.621 3.349 2.969.37.066.786.071 5.48.071 5.59 0 5.279.012 6.14-.246 1.976-.593 3.004-2.187 2.908-4.514-.014-.335-.192-1.902-.442-3.9-.449-3.581-.466-3.677-.791-4.396-.308-.683-.864-1.305-1.425-1.596a2.501 2.501 0 0 0-1.073-.314l-.326-.025.037-.164c.095-.422-.18-1.489-.569-2.215-.68-1.267-1.963-2.209-3.419-2.51-.386-.08-1.254-.11-1.64-.057m1.313 1.334c1.471.282 2.656 1.591 2.768 3.058.013.168.032.364.043.435l.02.13H8.468l.026-.392c.094-1.446.952-2.6 2.306-3.103.491-.183 1.282-.237 1.853-.128M9.55 10.465c.482.279.556 1.018.145 1.429-.18.18-.333.243-.595.244a.884.884 0 0 1-.858-1.088c.135-.612.771-.896 1.308-.585m5.55-.101c.22.056.488.282.585.494a1.06 1.06 0 0 1 0 .764.99.99 0 0 1-.607.498.856.856 0 0 1-.963-.45.908.908 0 0 1 .507-1.29c.195-.07.256-.072.478-.016" fill="#111013" fill-rule="evenodd"/></svg>