<svg width="24" height="24" fill="none" xmlns="http://www.w3.org/2000/svg"><path d="M20.018 4.071c-3.226 1.939-6.804 5.116-9.403 8.349-.721.897-1.842 2.479-2.232 3.15-.061.105-.122.19-.137.189-.014 0-.233-.409-.486-.908-.745-1.471-1.23-2.12-1.777-2.376-.738-.345-1.447-.09-2.579.927l-.415.373.205.066c.773.253 1.649 1.297 2.482 2.96.416.831.833 1.85 1.144 2.799.105.319.199.594.209.612.01.017.089-.033.176-.112.252-.227 1.038-.803 1.761-1.29l.666-.448.37-.691c1.514-2.828 3.824-6.075 6.34-8.911.665-.75 2.411-2.496 3.078-3.077.286-.25.751-.639 1.033-.865.282-.226.515-.424.518-.44.007-.036-.382-.615-.413-.617-.013 0-.256.139-.54.31" fill="#111013" fill-rule="evenodd"/></svg>