<svg xmlns="http://www.w3.org/2000/svg" fill="none" stroke="currentColor" stroke-linecap="round" stroke-linejoin="round" stroke-width="1.5" viewBox="0 0 24 24"><path d="M5.285 2.361c-.327.068-.465.202-.641.619-.352.834-.454 1.945-.261 2.826l.066.301-.242.356c-.709 1.044-1.019 2.193-.949 3.517.18 3.448 1.737 5.358 4.951 6.077.102.022.106.031.06.133-.036.08-.046.401-.037 1.176l.012 1.067-.203.043c-.625.134-1.227.08-1.701-.154-.444-.218-.739-.54-1.534-1.671a7.682 7.682 0 0 0-.511-.649c-.404-.437-.997-.762-1.388-.762-.353 0-.62.316-.656.773-.026.34.069.478.457.667.159.077.352.202.429.278.078.075.374.462.658.859.284.398.622.839.751.98a3.765 3.765 0 0 0 1.814 1.131c.289.078.437.092.98.092.352 0 .697-.013.767-.028l.126-.029.014.649c.011.561.024.669.096.805.115.22.325.323.657.323s.542-.103.657-.323c.081-.154.083-.21.083-2.557l.001-2.4.107-.183a1.21 1.21 0 0 1 .173-.238c.241-.2.299-.805.098-1.021-.161-.172-.303-.222-.855-.303-1.615-.238-2.571-.648-3.301-1.419-.821-.867-1.178-1.97-1.178-3.636 0-.696.011-.842.086-1.12.13-.48.479-1.141.813-1.54.157-.187.301-.382.32-.433.057-.147.042-.378-.041-.653a3.483 3.483 0 0 1-.162-1.131c.002-.339.073-.873.124-.921.029-.027.594.135.902.258.35.14.934.45 1.464.777.439.27.55.29 1.009.182 1.802-.424 3.481-.428 5.34-.012.56.125.628.112 1.141-.213.729-.464 1.571-.847 2.129-.969.19-.041.164-.074.249.315.052.241.051.928-.002 1.223-.024.13-.08.36-.125.51-.108.36-.085.612.072.808.443.55.562.724.739 1.079.322.65.372.897.373 1.84 0 .651-.016.889-.087 1.28a6.05 6.05 0 0 1-.368 1.277c-.331.774-1.001 1.478-1.783 1.874-.51.258-1.504.531-2.307.633-.442.056-.621.138-.807.37-.109.135-.124.183-.124.406 0 .227.013.268.131.406.071.085.179.225.24.311l.109.157.02 2.443c.019 2.371.022 2.448.103 2.6.115.22.325.323.657.323s.542-.103.657-.323c.081-.154.083-.209.083-2.597 0-1.342-.012-2.507-.027-2.59-.026-.139-.02-.151.08-.174 2.897-.646 4.475-2.307 4.862-5.119.256-1.859-.004-3.211-.862-4.474l-.242-.356.066-.301c.193-.88.091-1.982-.261-2.829-.216-.52-.415-.639-1.056-.632-.849.01-1.934.396-3.089 1.101l-.249.152-.371-.077a13.102 13.102 0 0 0-5.182 0l-.371.077-.249-.152c-1.09-.665-2.132-1.05-2.976-1.101a2.694 2.694 0 0 0-.528.016" fill-rule="evenodd" fill="#000" stroke="none"/></svg>