<svg width="24" height="24" fill="none" xmlns="http://www.w3.org/2000/svg"><path d="M12.607 2.046c-.206.059-.471.348-.517.564-.029.137.027 1.142.231 4.118.246 3.597.277 3.95.352 4.099.104.204.269.344.513.438.188.071.233.069 4.195-.192 4.408-.29 4.189-.263 4.431-.55.234-.279.236-.567.012-1.454-.978-3.867-4.292-6.652-8.364-7.028-.518-.048-.673-.047-.853.005M8.54 5.06c-2.457.641-4.582 2.376-5.681 4.64a8.388 8.388 0 0 0 .084 7.532c1.362 2.63 3.881 4.361 6.845 4.708 4.009.469 7.876-1.878 9.266-5.624.257-.693.506-1.856.506-2.366 0-.49-.354-.925-.84-1.035-.109-.024-1.175.028-3.389.165-1.777.11-3.367.2-3.533.2-.245 0-.342-.02-.51-.104a.953.953 0 0 1-.509-.596c-.037-.129-.135-1.358-.277-3.471-.242-3.613-.219-3.448-.527-3.79-.328-.364-.745-.439-1.435-.259" fill="#111013" fill-rule="evenodd"/></svg>