<svg width="24" height="24" fill="none" xmlns="http://www.w3.org/2000/svg"><path d="M8.68 5.026a2.581 2.581 0 0 0-.789.323c-.42.277-.745.754-.847 1.243-.031.15-.044 2.285-.044 7.32v7.108l2.01-2.01L11.02 17h4.588c3.195 0 4.652-.013 4.8-.044a2.062 2.062 0 0 0 1.548-1.548c.062-.297.062-8.519 0-8.816-.138-.661-.615-1.205-1.296-1.476l-.24-.096-5.82-.005c-3.201-.003-5.865.002-5.92.011M2.628 7.064c-.643.198-.845 1.159-.348 1.656.258.258.388.28 1.627.28H5V7l-1.09.003c-.84.002-1.134.016-1.282.061m-1 4c-.643.198-.845 1.159-.348 1.656.271.271.336.28 2.127.28H5v-2l-1.59.003c-1.281.002-1.627.014-1.782.061m-1 4c-.643.198-.845 1.159-.348 1.656.28.28.282.28 2.627.28H5v-2l-2.09.003c-1.721.002-2.124.013-2.282.061" fill="#111013" fill-rule="evenodd"/></svg>