<svg width="24" height="24" fill="none" xmlns="http://www.w3.org/2000/svg"><path d="M4.18 4.064a3.486 3.486 0 0 0-.659.243c-.311.152-.438.244-.704.51a2.204 2.204 0 0 0-.512.704c-.304.616-.304.613-.304 3.327L2 11.237l.39-.266c.964-.655 1.929-.949 3.11-.947 1.101.002 1.96.238 2.867.789l.307.187h4.344c3.831 0 4.362.007 4.493.062a.738.738 0 0 1-.112 1.415c-.116.026-1.434.041-3.729.042l-3.549.001.119.194c.152.247.346.671.459 1.006l.088.26 2.337.02c2.539.022 2.446.013 2.664.247.398.426.186 1.097-.389 1.23-.111.025-.982.041-2.282.042l-2.104.001-.046.473a5.788 5.788 0 0 1-.389 1.608l-.149.367 1.015 1.016L12.459 20H16c3.406-.001 3.553-.004 3.875-.081a2.771 2.771 0 0 0 2.044-2.044c.079-.327.08-.466.08-5.875s-.001-5.548-.08-5.875a2.728 2.728 0 0 0-1.442-1.818c-.683-.33-.057-.307-8.505-.304-6.374.003-7.554.012-7.792.061m9.36 4.012a.736.736 0 0 1-.141 1.401c-.245.056-6.553.056-6.798 0a.736.736 0 0 1-.141-1.401c.152-.07.338-.074 3.54-.074s3.388.004 3.54.074m-8.749 2.986a4.758 4.758 0 0 0-1.417.48c-2.296 1.25-3.054 4.1-1.687 6.341.279.458.972 1.151 1.43 1.43 1.114.679 2.405.858 3.634.503.374-.108.98-.383 1.209-.548l.14-.101 1.4 1.391c1.252 1.243 1.418 1.395 1.574 1.433a.799.799 0 0 0 .874-.408c.08-.152.078-.456-.003-.627-.036-.075-.675-.747-1.422-1.493l-1.357-1.357.121-.176c.179-.261.414-.784.527-1.175a4.398 4.398 0 0 0-.295-3.255 4.496 4.496 0 0 0-4.728-2.438m1.433 1.537c1.861.468 2.803 2.539 1.936 4.261a3.034 3.034 0 0 1-1.241 1.277 3.038 3.038 0 0 1-2.838 0c-1.413-.746-1.972-2.546-1.241-3.997a3.006 3.006 0 0 1 1.92-1.538 3.41 3.41 0 0 1 1.464-.003" fill="#111013" fill-rule="evenodd"/></svg>